<svg width="17" height="17" viewBox="0 0 17 17" fill="none" xmlns="http://www.w3.org/2000/svg">
<path d="M2.125 7.2493L2.65427 7.20354C2.62977 6.9201 2.38633 6.70628 2.1021 6.71855C1.81787 6.73081 1.59375 6.96481 1.59375 7.2493H2.125ZM14.3339 8.54074L13.8342 11.4305L14.8812 11.6116L15.3809 8.72179L14.3339 8.54074ZM9.38187 15.0522H6.08908V16.1147H9.38187V15.0522ZM5.44353 14.4589L4.86825 7.80577L3.8097 7.89729L4.38498 14.5504L5.44353 14.4589ZM13.8342 11.4305C13.4752 13.5064 11.6034 15.0522 9.38187 15.0522V16.1147C12.0921 16.1147 14.4293 14.2241 14.8812 11.6116L13.8342 11.4305ZM9.38882 3.61268L8.9194 6.47759L9.96795 6.64938L10.4374 3.78448L9.38882 3.61268ZM5.09131 7.25738L6.11042 6.37922L5.41683 5.57434L4.39772 6.45252L5.09131 7.25738ZM7.9645 3.52195L8.30145 2.22298L7.27303 1.95619L6.93606 3.25517L7.9645 3.52195ZM8.81039 1.96812L8.9131 2.00111L9.23808 0.989527L9.13538 0.95654L8.81039 1.96812ZM7.45415 4.82807C7.67508 4.4144 7.8467 3.97623 7.9645 3.52195L6.93606 3.25517C6.83948 3.6275 6.6987 3.98724 6.51696 4.32746L7.45415 4.82807ZM8.9131 2.00111C9.13013 2.07083 9.28427 2.23847 9.33491 2.4338L10.3634 2.16702C10.2178 1.606 9.78846 1.16633 9.23808 0.989527L8.9131 2.00111ZM8.30145 2.22298C8.32632 2.12734 8.39538 2.03946 8.49986 1.98911L8.03859 1.03194C7.66176 1.21352 7.37871 1.54869 7.27303 1.95619L8.30145 2.22298ZM8.49986 1.98911C8.59527 1.94311 8.70761 1.93511 8.81039 1.96812L9.13538 0.95654C8.77434 0.840551 8.38043 0.867219 8.03859 1.03194L8.49986 1.98911ZM10.0255 7.78055H13.6955V6.71805H10.0255V7.78055ZM3.34249 15.1627L2.65427 7.20354L1.59573 7.29506L2.28394 15.2542L3.34249 15.1627ZM2.65625 15.2382V7.2493H1.59375V15.2382H2.65625ZM2.28394 15.2542C2.2746 15.1462 2.35978 15.0522 2.46975 15.0522V16.1147C2.98398 16.1147 3.3867 15.674 3.34249 15.1627L2.28394 15.2542ZM10.4374 3.78448C10.5255 3.24606 10.5004 2.69513 10.3634 2.16702L9.33491 2.4338C9.43479 2.8187 9.45313 3.22025 9.38882 3.61268L10.4374 3.78448ZM6.08908 15.0522C5.75339 15.0522 5.47259 14.795 5.44353 14.4589L4.38498 14.5504C4.46145 15.4348 5.20108 16.1147 6.08908 16.1147V15.0522ZM6.11042 6.37922C6.59198 5.96424 7.1111 5.4703 7.45415 4.82807L6.51696 4.32746C6.27161 4.78676 5.88094 5.1744 5.41683 5.57434L6.11042 6.37922ZM15.3809 8.72179C15.5617 7.67593 14.7575 6.71805 13.6955 6.71805V7.78055C14.0968 7.78055 14.4027 8.14301 14.3339 8.54074L15.3809 8.72179ZM2.46975 15.0522C2.57332 15.0522 2.65625 15.136 2.65625 15.2382H1.59375C1.59375 15.7217 1.98538 16.1147 2.46975 16.1147V15.0522ZM8.9194 6.47759C8.8077 7.15963 9.33342 7.78055 10.0255 7.78055V6.71805C9.99019 6.71805 9.96193 6.68604 9.96795 6.64938L8.9194 6.47759ZM4.86825 7.80577C4.85024 7.59752 4.93336 7.39352 5.09131 7.25738L4.39772 6.45252C3.98099 6.81163 3.76231 7.34925 3.8097 7.89729L4.86825 7.80577Z" fill="#1C274C"/>
</svg>
