<svg width="16" height="16" viewBox="0 0 16 16" fill="none" xmlns="http://www.w3.org/2000/svg">
<path d="M12.4237 10.4468L13.568 7.01391C14.5677 4.01499 15.0675 2.51552 14.2759 1.72401C13.4845 0.932499 11.985 1.43232 8.98606 2.43196L5.55317 3.57625C3.13274 4.38306 1.92253 4.78647 1.57863 5.37803C1.25146 5.94079 1.25146 6.63583 1.57863 7.19857C1.92253 7.79017 3.13274 8.19357 5.55317 9.00037C5.9418 9.12991 6.13612 9.19471 6.29854 9.30344C6.45595 9.40877 6.59117 9.54404 6.69652 9.70144C6.80525 9.86384 6.87005 10.0582 6.99959 10.4468C7.80639 12.8672 8.20979 14.0774 8.80139 14.4213C9.36412 14.7485 10.0592 14.7485 10.6219 14.4213C11.2135 14.0774 11.6169 12.8672 12.4237 10.4468Z" stroke="#2E5538" stroke-width="1.5"/>
<path d="M10.8078 5.89884C11.0041 5.70466 11.0058 5.38809 10.8116 5.19174C10.6175 4.9954 10.3009 4.99365 10.1046 5.18783L10.8078 5.89884ZM7.10843 9.55736L10.8078 5.89884L10.1046 5.18783L6.40527 8.84636L7.10843 9.55736Z" fill="#2E5538"/>
</svg>
