<svg width="17" height="17" viewBox="0 0 17 17" fill="none" xmlns="http://www.w3.org/2000/svg">
<path d="M15.5834 9.91526C15.5629 12.3335 15.4286 13.6667 14.5495 14.5458C13.5119 15.5834 11.8419 15.5834 8.50192 15.5834C5.16194 15.5834 3.49195 15.5834 2.45435 14.5458C1.41675 13.5082 1.41675 11.8382 1.41675 8.49824C1.41675 5.15825 1.41675 3.48825 2.45435 2.45065C3.33349 1.5715 4.66663 1.43725 7.0849 1.41675" stroke="#1C274C" stroke-width="1.5" stroke-linecap="round"/>
<path d="M15.5833 4.95841H9.91667C8.6292 4.95841 7.85308 5.59026 7.56528 5.87945C7.47617 5.96902 7.43162 6.0138 7.43098 6.01441C7.43042 6.01502 7.38558 6.05958 7.29605 6.14871C7.00685 6.4365 6.375 7.21261 6.375 8.50008V10.6251M15.5833 4.95841L12.0417 1.41675M15.5833 4.95841L12.0417 8.50008" stroke="#1C274C" stroke-width="1.5" stroke-linecap="round" stroke-linejoin="round"/>
</svg>
