<svg width="17" height="22" viewBox="0 0 17 22" fill="none" xmlns="http://www.w3.org/2000/svg">
<g clip-path="url(#clip0_11_170)">
<path d="M16.4591 7.4998C16.338 7.5988 14.1994 8.8682 14.1994 11.6908C14.1994 14.9556 16.9206 16.1106 17.0021 16.1392C16.9896 16.2096 16.5698 17.721 15.5673 19.261C14.6735 20.6162 13.7399 21.9692 12.3198 21.9692C10.8996 21.9692 10.5342 21.1002 8.89472 21.1002C7.29705 21.1002 6.72899 21.9978 5.42998 21.9978C4.13096 21.9978 3.22457 20.7438 2.18243 19.2038C0.975307 17.3954 0 14.586 0 11.9196C0 7.6428 2.6398 5.3746 5.23784 5.3746C6.6183 5.3746 7.76904 6.3294 8.63575 6.3294C9.46069 6.3294 10.7472 5.3174 12.3177 5.3174C12.9129 5.3174 15.0515 5.3746 16.4591 7.4998ZM11.5721 3.5068C12.2216 2.695 12.6811 1.5686 12.6811 0.4422C12.6811 0.286 12.6686 0.1276 12.6414 0C11.5846 0.0418 10.3274 0.7414 9.56929 1.6676C8.97408 2.3804 8.41855 3.5068 8.41855 4.6486C8.41855 4.8202 8.4457 4.9918 8.45823 5.0468C8.52506 5.06 8.63366 5.0754 8.74226 5.0754C9.69042 5.0754 10.8829 4.4066 11.5721 3.5068Z" fill="black"/>
</g>
<defs>
<clipPath id="clip0_11_170">
<rect width="17" height="22" fill="white"/>
</clipPath>
</defs>
</svg>
