<svg width="18" height="18" viewBox="0 0 18 18" fill="none" xmlns="http://www.w3.org/2000/svg">
<g clip-path="url(#clip0_11_172)">
<path d="M17.7856 9.16838C17.7856 8.43093 17.7258 7.89279 17.5963 7.33472H9.17529V10.6632H14.1182C14.0186 11.4904 13.4805 12.7361 12.2846 13.5732L12.2678 13.6846L14.9303 15.7472L15.1148 15.7657C16.8089 14.201 17.7856 11.899 17.7856 9.16838Z" fill="#4285F4"/>
<path d="M9.17525 17.9382C11.5969 17.9382 13.6298 17.1409 15.1148 15.7657L12.2845 13.5732C11.5271 14.1014 10.5106 14.4701 9.17525 14.4701C6.80344 14.4701 4.79039 12.9055 4.0728 10.743L3.96761 10.7519L1.19905 12.8945L1.16284 12.9952C2.63774 15.9251 5.66731 17.9382 9.17525 17.9382Z" fill="#34A853"/>
<path d="M4.07269 10.743C3.88334 10.1849 3.77376 9.58692 3.77376 8.96908C3.77376 8.35117 3.88334 7.75325 4.06273 7.19519L4.05771 7.07633L1.25445 4.89929L1.16273 4.94292C0.554856 6.15874 0.206055 7.52406 0.206055 8.96908C0.206055 10.4141 0.554856 11.7793 1.16273 12.9952L4.07269 10.743Z" fill="#FBBC05"/>
<path d="M9.17525 3.46802C10.8594 3.46802 11.9955 4.19551 12.6433 4.80346L15.1745 2.33196C13.6199 0.886946 11.5969 0 9.17525 0C5.66731 0 2.63774 2.01305 1.16284 4.94292L4.06283 7.19519C4.79039 5.03265 6.80344 3.46802 9.17525 3.46802Z" fill="#EB4335"/>
</g>
<defs>
<clipPath id="clip0_11_172">
<rect width="18" height="18" fill="white"/>
</clipPath>
</defs>
</svg>
