<svg width="17" height="17" viewBox="0 0 17 17" fill="none" xmlns="http://www.w3.org/2000/svg">
<path d="M15.5832 7.43746V8.49996C15.5832 11.839 15.5832 13.5087 14.5458 14.5459C13.5085 15.5833 11.8389 15.5833 8.49984 15.5833C5.16072 15.5833 3.49116 15.5833 2.45384 14.5459C1.4165 13.5087 1.4165 11.839 1.4165 8.49996C1.4165 5.16084 1.4165 3.49128 2.45384 2.45396C3.49116 1.41663 5.16072 1.41663 8.49984 1.41663H9.56234" stroke="#1C274C" stroke-width="1.5" stroke-linecap="round"/>
<path d="M11.795 2.4473L12.2546 1.98771C13.0161 1.22626 14.2507 1.22626 15.0121 1.98771C15.7735 2.74917 15.7735 3.98373 15.0121 4.74518L14.5525 5.20476M11.795 2.4473C11.795 2.4473 11.8525 3.4239 12.7142 4.2856C13.5759 5.14731 14.5525 5.20476 14.5525 5.20476M11.795 2.4473L7.56994 6.67241C7.28377 6.95858 7.14069 7.10164 7.0176 7.25946C6.87244 7.44554 6.74798 7.64692 6.64644 7.85998C6.56036 8.04061 6.49637 8.23256 6.36839 8.61655L5.95864 9.84579M14.5525 5.20476L10.3274 9.42986C10.0412 9.71603 9.89816 9.85911 9.74034 9.98222C9.55426 10.1274 9.35288 10.2518 9.13982 10.3534C8.95919 10.4394 8.76723 10.5034 8.38325 10.6314L7.15401 11.0412M5.95864 9.84579L5.6935 10.6412C5.63052 10.8302 5.67969 11.0384 5.82053 11.1793C5.96136 11.3201 6.16967 11.3693 6.35861 11.3063L7.15401 11.0412M5.95864 9.84579L7.15401 11.0412" stroke="#1C274C" stroke-width="1.5"/>
</svg>
