<svg width="25" height="25" viewBox="0 0 25 25" fill="none" xmlns="http://www.w3.org/2000/svg">
<path d="M19.2491 10.6397V9.93515C19.2491 6.06641 16.2274 2.93018 12.5 2.93018C8.77256 2.93018 5.75087 6.06641 5.75087 9.93515V10.6397C5.75087 11.4854 5.50972 12.312 5.0578 13.0156L3.95036 14.7397C2.93882 16.3145 3.71105 18.4551 5.47036 18.9531C10.0727 20.2559 14.9273 20.2559 19.5296 18.9531C21.289 18.4551 22.0612 16.3145 21.0496 14.7397L19.9422 13.0156C19.4903 12.312 19.2491 11.4854 19.2491 10.6397Z" stroke="#1C274C" stroke-width="1.5"/>
<path d="M8 19.9302C8.65503 21.678 10.4225 22.9302 12.5 22.9302C14.5775 22.9302 16.345 21.678 17 19.9302" stroke="#1C274C" stroke-width="1.5" stroke-linecap="round"/>
<path d="M12.5 6.93018V10.9302" stroke="#1C274C" stroke-width="1.5" stroke-linecap="round"/>
</svg>
