<svg width="23" height="24" viewBox="0 0 23 24" fill="none" xmlns="http://www.w3.org/2000/svg">
<path d="M3.83334 18.1802V6.68018" stroke="#1C274C" stroke-width="1.5" stroke-linecap="round"/>
<path d="M19.1667 6.68018V18.1802" stroke="#1C274C" stroke-width="1.5" stroke-linecap="round"/>
<path d="M11.5 10.5136C15.7342 10.5136 19.1667 8.79735 19.1667 6.68026C19.1667 4.56316 15.7342 2.84692 11.5 2.84692C7.26583 2.84692 3.83334 4.56316 3.83334 6.68026C3.83334 8.79735 7.26583 10.5136 11.5 10.5136Z" stroke="#1C274C" stroke-width="1.5"/>
<path d="M19.1667 12.4302C19.1667 14.5472 15.7342 16.2635 11.5 16.2635C7.26583 16.2635 3.83334 14.5472 3.83334 12.4302" stroke="#1C274C" stroke-width="1.5"/>
<path d="M19.1667 18.1802C19.1667 20.2972 15.7342 22.0135 11.5 22.0135C7.26583 22.0135 3.83334 20.2972 3.83334 18.1802" stroke="#1C274C" stroke-width="1.5"/>
</svg>
