<svg width="24" height="25" viewBox="0 0 24 25" fill="none" xmlns="http://www.w3.org/2000/svg">
<path d="M12 16.9302C15.866 16.9302 19 13.7962 19 9.93018C19 6.06418 15.866 2.93018 12 2.93018C8.13401 2.93018 5 6.06418 5 9.93018C5 13.7962 8.13401 16.9302 12 16.9302Z" stroke="#1C274C" stroke-width="1.5"/>
<path d="M7.35111 16.9302L6.71424 19.2532C6.0859 21.545 5.77173 22.6909 6.19097 23.3183C6.3379 23.5381 6.535 23.7146 6.76372 23.831C7.41635 24.1633 8.42401 23.6383 10.4393 22.5882C11.1099 22.2388 11.4452 22.0641 11.8014 22.0261C11.9335 22.012 12.0665 22.012 12.1986 22.0261C12.5548 22.0641 12.8901 22.2388 13.5607 22.5882C15.576 23.6383 16.5837 24.1633 17.2363 23.831C17.465 23.7146 17.6621 23.5381 17.809 23.3183C18.2283 22.6909 17.9141 21.545 17.2858 19.2532L16.6489 16.9302" stroke="#1C274C" stroke-width="1.5" stroke-linecap="round"/>
</svg>
