<svg width="25" height="25" viewBox="0 0 25 25" fill="none" xmlns="http://www.w3.org/2000/svg">
<path d="M2.5 12.5C2.5 8.02165 2.5 5.78248 3.81802 4.39125C5.13604 3 7.25736 3 11.5 3C15.7426 3 17.864 3 19.1819 4.39125C20.5 5.78248 20.5 8.02165 20.5 12.5C20.5 16.9783 20.5 19.2175 19.1819 20.6087C17.864 22 15.7426 22 11.5 22C7.25736 22 5.13604 22 3.81802 20.6087C2.5 19.2175 2.5 16.9783 2.5 12.5Z" stroke="#1C274C" stroke-width="1.5"/>
<path d="M16.5 2.93018V9.73778C16.5 10.7127 16.5 11.2002 16.3709 11.4909C16.0766 12.1535 15.3506 12.5107 14.6461 12.3397C14.3369 12.2646 13.9507 11.9672 13.1782 11.3724C12.7421 11.0366 12.524 10.8687 12.297 10.77C11.7886 10.5492 11.2114 10.5492 10.703 10.77C10.476 10.8687 10.2579 11.0366 9.8218 11.3724C9.0493 11.9672 8.66307 12.2646 8.35391 12.3397C7.64942 12.5107 6.92342 12.1535 6.62914 11.4909C6.5 11.2002 6.5 10.7127 6.5 9.73778V2.93018" stroke="#1C274C" stroke-width="1.5"/>
</svg>
