<svg width="24" height="24" viewBox="0 0 24 24" fill="none" xmlns="http://www.w3.org/2000/svg">
<path d="M13.9167 4.76359C13.9167 5.82214 13.0586 6.68026 12 6.68026C10.9414 6.68026 10.0833 5.82214 10.0833 4.76359C10.0833 3.70504 10.9414 2.84692 12 2.84692C13.0586 2.84692 13.9167 3.70504 13.9167 4.76359Z" stroke="#1C274C" stroke-width="1.5"/>
<path d="M12 15.3049L12.6241 14.9483C12.4961 14.7244 12.2579 14.5861 12 14.5861C11.7421 14.5861 11.5039 14.7244 11.3759 14.9483L12 15.3049ZM6.0685 12.009L8.15316 12.7039L8.60774 11.3402L6.52309 10.6453L6.0685 12.009ZM8.47027 13.3759L7.27543 16.4824L8.61711 16.9984L9.81195 13.8918L8.47027 13.3759ZM17.4769 10.6453L15.3922 11.3402L15.8468 12.7039L17.9315 12.009L17.4769 10.6453ZM14.1881 13.8918L15.3829 16.9984L16.7246 16.4824L15.5297 13.3759L14.1881 13.8918ZM11.1139 18.3043L12.6241 15.6615L11.3759 14.9483L9.86577 17.5911L11.1139 18.3043ZM16.7815 7.79524L14.963 8.18492L15.2642 9.59051L17.0827 9.20084L16.7815 7.79524ZM9.03699 8.18492L7.21848 7.79524L6.91729 9.20084L8.73578 9.59051L9.03699 8.18492ZM11.3759 15.6615L12.8861 18.3043L14.1342 17.5911L12.6241 14.9483L11.3759 15.6615ZM14.963 8.18492C14.8609 8.20679 14.8133 8.21701 14.7662 8.22674L15.0574 9.63444C15.1105 9.62343 15.164 9.61198 15.2642 9.59051L14.963 8.18492ZM8.73578 9.59051C8.83596 9.61198 8.88939 9.62343 8.94261 9.63444L9.23379 8.22674C9.18674 8.21701 9.13906 8.20679 9.03699 8.18492L8.73578 9.59051ZM14.7662 8.22674C12.9414 8.6042 11.0586 8.6042 9.23379 8.22674L8.94261 9.63444C10.9595 10.0516 13.0405 10.0516 15.0574 9.63444L14.7662 8.22674ZM9.26401 19.3778C10.0286 19.3778 10.7345 18.9681 11.1139 18.3043L9.86577 17.5911C9.74237 17.8071 9.51272 17.9403 9.26401 17.9403V19.3778ZM15.3829 16.9984C15.5575 17.4524 15.2224 17.9403 14.7359 17.9403V19.3778C16.2312 19.3778 17.2613 17.8779 16.7246 16.4824L15.3829 16.9984ZM15.3922 11.3402C15.1795 11.4111 14.9532 11.4814 14.7694 11.5948L15.5245 12.8181C15.5159 12.8233 15.5231 12.817 15.5786 12.7961C15.6369 12.774 15.7154 12.7477 15.8468 12.7039L15.3922 11.3402ZM15.5297 13.3759C15.48 13.2466 15.4504 13.1691 15.4303 13.1101C15.4113 13.054 15.4116 13.0446 15.4129 13.0544L13.9886 13.2492C14.018 13.4632 14.1076 13.6826 14.1881 13.8918L15.5297 13.3759ZM14.7694 11.5948C14.2048 11.9433 13.8988 12.5918 13.9886 13.2492L15.4129 13.0544C15.4001 12.9605 15.4438 12.8678 15.5245 12.8181L14.7694 11.5948ZM17.9896 9.93396C17.9896 10.2567 17.7831 10.5432 17.4769 10.6453L17.9315 12.009C18.8247 11.7113 19.4271 10.8755 19.4271 9.93396H17.9896ZM7.27543 16.4824C6.73868 17.8779 7.76879 19.3778 9.26401 19.3778V17.9403C8.7776 17.9403 8.4425 17.4524 8.61711 16.9984L7.27543 16.4824ZM8.15316 12.7039C8.28454 12.7477 8.36312 12.774 8.42141 12.7961C8.47688 12.817 8.48401 12.8233 8.47553 12.8181L9.2306 11.5948C9.04681 11.4814 8.82042 11.4111 8.60774 11.3402L8.15316 12.7039ZM9.81195 13.8918C9.89243 13.6826 9.98205 13.4632 10.0113 13.2492L8.58706 13.0544C8.58841 13.0446 8.58871 13.0539 8.56965 13.1101C8.54961 13.1691 8.51998 13.2466 8.47027 13.3759L9.81195 13.8918ZM8.47553 12.8181C8.55618 12.8678 8.5999 12.9605 8.58706 13.0544L10.0113 13.2492C10.1011 12.5918 9.79514 11.9433 9.2306 11.5948L8.47553 12.8181ZM4.57291 9.93396C4.57291 10.8755 5.17534 11.7113 6.0685 12.009L6.52309 10.6453C6.21692 10.5432 6.01041 10.2567 6.01041 9.93396H4.57291ZM6.01041 9.93396C6.01041 9.45662 6.45054 9.10081 6.91729 9.20084L7.21848 7.79524C5.85687 7.50347 4.57291 8.54144 4.57291 9.93396H6.01041ZM12.8861 18.3043C13.2655 18.9681 13.9714 19.3778 14.7359 19.3778V17.9403C14.4872 17.9403 14.2576 17.8071 14.1342 17.5911L12.8861 18.3043ZM19.4271 9.93396C19.4271 8.54144 18.1431 7.50346 16.7815 7.79524L17.0827 9.20084C17.5494 9.10081 17.9896 9.45662 17.9896 9.93396H19.4271Z" fill="#1C274C"/>
<path d="M19.1431 14.8259C20.6606 15.5889 21.5833 16.5964 21.5833 17.7009C21.5833 20.0827 17.2927 22.0134 12 22.0134C6.70726 22.0134 2.41666 20.0827 2.41666 17.7009C2.41666 16.5964 3.33939 15.5889 4.85687 14.8259" stroke="#1C274C" stroke-width="1.5" stroke-linecap="round"/>
</svg>
