<svg width="23" height="24" viewBox="0 0 23 24" fill="none" xmlns="http://www.w3.org/2000/svg">
<path d="M2.875 10.9129C2.875 7.84853 2.875 6.31636 3.23679 5.8009C3.59857 5.28544 5.03922 4.7923 7.92054 3.80601L8.46948 3.61811C9.97146 3.10399 10.7224 2.84692 11.5 2.84692C12.2776 2.84692 13.0285 3.10399 14.5305 3.61811L15.0795 3.80601C17.9608 4.7923 19.4015 5.28544 19.7632 5.8009C20.125 6.31636 20.125 7.84853 20.125 10.9129C20.125 11.3757 20.125 11.8777 20.125 12.422C20.125 17.8251 16.0626 20.4472 13.5138 21.5606C12.8225 21.8626 12.4768 22.0136 11.5 22.0136C10.5232 22.0136 10.1775 21.8626 9.48612 21.5606C6.93734 20.4472 2.875 17.8251 2.875 12.422C2.875 11.8777 2.875 11.3757 2.875 10.9129Z" stroke="#1C274C" stroke-width="1.5"/>
</svg>
