<svg width="22" height="22" viewBox="0 0 22 22" fill="none" xmlns="http://www.w3.org/2000/svg">
<path d="M11 20.1666C16.0626 20.1666 20.1666 16.0625 20.1666 10.9999C20.1666 5.93731 16.0626 1.83325 11 1.83325C5.93737 1.83325 1.83331 5.93731 1.83331 10.9999C1.83331 16.0625 5.93737 20.1666 11 20.1666Z" stroke="#323232" stroke-width="1.5"/>
<path d="M9.28125 8.1355C9.28125 7.18626 10.0508 6.41675 11 6.41675C11.9492 6.41675 12.7188 7.18626 12.7188 8.1355C12.7188 8.76566 12.3796 9.31662 11.8739 9.61582C11.4382 9.87359 11 10.2646 11 10.7709V11.9167" stroke="#323232" stroke-width="1.5" stroke-linecap="round"/>
<path d="M11 15.5833C11.5063 15.5833 11.9167 15.1729 11.9167 14.6667C11.9167 14.1604 11.5063 13.75 11 13.75C10.4937 13.75 10.0833 14.1604 10.0833 14.6667C10.0833 15.1729 10.4937 15.5833 11 15.5833Z" fill="#323232"/>
</svg>
