<svg width="22" height="22" viewBox="0 0 22 22" fill="none" xmlns="http://www.w3.org/2000/svg">
<path d="M7.33511 6.41659C7.34621 4.42281 7.43463 3.34306 8.13897 2.63871C8.94443 1.83325 10.2408 1.83325 12.8335 1.83325H13.7502C16.3429 1.83325 17.6393 1.83325 18.4447 2.63871C19.2502 3.44417 19.2502 4.74052 19.2502 7.33325V14.6666C19.2502 17.2593 19.2502 18.5556 18.4447 19.3611C17.6393 20.1666 16.3429 20.1666 13.7502 20.1666H12.8335C10.2408 20.1666 8.94443 20.1666 8.13897 19.3611C7.43463 18.6567 7.34621 17.577 7.33511 15.5833" stroke="#323232" stroke-width="1.5" stroke-linecap="round"/>
<path d="M7.33333 17.875C5.17273 17.875 4.09243 17.875 3.42121 17.2038C2.75 16.5325 2.75 15.4523 2.75 13.2917V8.70833C2.75 6.54773 2.75 5.46743 3.42121 4.79621C4.09243 4.125 5.17273 4.125 7.33333 4.125" stroke="#323232" stroke-width="1.5"/>
<path d="M13.75 11.0001H5.5M5.5 11.0001L7.33333 12.8334M5.5 11.0001L7.33333 9.16675" stroke="#323232" stroke-width="1.5" stroke-linecap="round" stroke-linejoin="round"/>
</svg>
