<svg width="23" height="22" viewBox="0 0 23 22" fill="none" xmlns="http://www.w3.org/2000/svg">
<path d="M11.5 13.75C13.0188 13.75 14.25 12.5188 14.25 11C14.25 9.48122 13.0188 8.25 11.5 8.25C9.98122 8.25 8.75 9.48122 8.75 11C8.75 12.5188 9.98122 13.75 11.5 13.75Z" stroke="#323232" stroke-width="1.5"/>
<path d="M13.1183 1.97281C12.7813 1.83325 12.3542 1.83325 11.5 1.83325C10.6457 1.83325 10.2187 1.83325 9.8817 1.97281C9.43251 2.15888 9.07561 2.51578 8.88953 2.965C8.80459 3.17006 8.77135 3.40854 8.75834 3.75641C8.73923 4.26763 8.47706 4.74082 8.03402 4.9966C7.59099 5.25238 7.05011 5.24283 6.59783 5.00378C6.29007 4.84111 6.06691 4.75065 5.84685 4.72169C5.36477 4.65822 4.87724 4.78885 4.49148 5.08485C4.20217 5.30685 3.98861 5.67674 3.5615 6.41652C3.13439 7.15631 2.92083 7.52619 2.87323 7.88775C2.80977 8.36982 2.9404 8.85736 3.2364 9.24313C3.3715 9.41922 3.56138 9.56717 3.85608 9.75233C4.2893 10.0246 4.56805 10.4883 4.56803 10.9999C4.568 11.5115 4.28926 11.9752 3.85607 12.2473C3.56133 12.4326 3.37143 12.5806 3.23631 12.7567C2.94031 13.1424 2.80968 13.6299 2.87315 14.112C2.92074 14.4735 3.13429 14.8435 3.56141 15.5833C3.98853 16.323 4.20208 16.693 4.49139 16.9149C4.87714 17.2109 5.36468 17.3415 5.84676 17.2781C6.0668 17.2491 6.28995 17.1586 6.59769 16.996C7.05 16.757 7.59092 16.7474 8.03398 17.0032C8.47704 17.259 8.73923 17.7322 8.75834 18.2435C8.77135 18.5913 8.80459 18.8298 8.88953 19.0349C9.07561 19.484 9.43251 19.841 9.8817 20.0271C10.2187 20.1666 10.6457 20.1666 11.5 20.1666C12.3542 20.1666 12.7813 20.1666 13.1183 20.0271C13.5674 19.841 13.9244 19.484 14.1104 19.0349C14.1954 18.8298 14.2286 18.5913 14.2416 18.2434C14.2607 17.7322 14.5229 17.259 14.9659 17.0032C15.4089 16.7473 15.9499 16.757 16.4022 16.996C16.71 17.1586 16.9331 17.249 17.1531 17.278C17.6351 17.3415 18.1227 17.2109 18.5085 16.9149C18.7978 16.6929 19.0113 16.323 19.4384 15.5832C19.8656 14.8434 20.0792 14.4735 20.1267 14.112C20.1902 13.6299 20.0595 13.1424 19.7636 12.7566C19.6284 12.5805 19.4385 12.4325 19.1438 12.2473C18.7107 11.9752 18.4319 11.5114 18.4319 10.9998C18.4319 10.4882 18.7107 10.0247 19.1438 9.75252C19.4386 9.56726 19.6285 9.41931 19.7636 9.24313C20.0596 8.85742 20.1903 8.36988 20.1268 7.88781C20.0793 7.52626 19.8657 7.15636 19.4385 6.41659C19.0114 5.67681 18.7978 5.30691 18.5085 5.08492C18.1228 4.78891 17.6352 4.65828 17.1532 4.72175C16.9332 4.75072 16.71 4.84117 16.4022 5.00382C15.9499 5.24288 15.409 5.25244 14.966 4.99663C14.5229 4.74084 14.2607 4.26761 14.2416 3.75636C14.2286 3.40853 14.1954 3.17005 14.1104 2.965C13.9244 2.51578 13.5674 2.15888 13.1183 1.97281Z" stroke="#323232" stroke-width="1.5"/>
</svg>
